<?xml version="1.0" encoding="UTF-8"?><svg xmlns="http://www.w3.org/2000/svg" viewBox="0 0 648.36 648.42"><defs><style>.c{fill:#fbed1e;}.d{fill:#c02225;}</style></defs><g id="a"><circle class="d" cx="324" cy="324" r="324"/><path class="c" d="M294.52,194.55c0,17.97,23.03,37.07,63.46,62.34,29.77,18.53,60.65,37.07,85.93,69.08,19.66,24.71,30.33,43.24,30.33,75.26,0,72.45-53.92,112.88-149.39,112.88s-147.14-28.08-147.14-85.37c0-28.64,30.33-62.9,77.5-62.9,23.03,0,40.44,11.23,40.44,18.53,0,4.49-8.42,9.55-16.29,14.6-13.48,8.42-20.78,19.66-20.78,32.57,0,28.08,20.78,44.37,47.74,44.37,38.19,0,57.29-23.03,57.29-52.23,0-47.18-42.68-72.45-101.65-108.39-53.92-32.57-88.17-62.34-88.17-105.02,0-37.07,39.88-69.64,112.88-69.64,14.04,0,38.19,1.12,71.33,1.12,37.07,0,56.72-7.86,62.9-7.86,11.79,0,14.6,10.67,19.1,28.08,2.81,10.67,5.62,22.46,5.62,28.64,0,10.11-6.74,17.97-12.92,17.97-8.42,0-15.72-8.42-22.46-16.85-15.73-19.66-36.51-29.2-58.97-29.2-31.45,0-56.72,12.92-56.72,32.01Z"/></g><g id="b"/></svg>